<mxfile host="app.diagrams.net" agent="Mozilla/5.0 (X11; Ubuntu; Linux x86_64; rv:141.0) Gecko/20100101 Firefox/141.0" version="28.0.3">
  <diagram name="Page-1" id="bKJgBQfbXTkX-yySEZ5d">
    <mxGraphModel dx="2091" dy="739" grid="1" gridSize="10" guides="1" tooltips="1" connect="1" arrows="1" fold="1" page="1" pageScale="1" pageWidth="850" pageHeight="1100" math="0" shadow="0">
      <root>
        <mxCell id="0" />
        <mxCell id="1" parent="0" />
        <mxCell id="C_d3zwqtKGMjWqqKydHQ-1" value="&lt;font style=&quot;font-size: 16px;&quot;&gt;RentalController&lt;/font&gt;" style="rounded=0;whiteSpace=wrap;html=1;dashed=1;" vertex="1" parent="1">
          <mxGeometry x="-100" y="110" width="680" height="290" as="geometry" />
        </mxCell>
        <mxCell id="C_d3zwqtKGMjWqqKydHQ-2" value="&lt;font style=&quot;font-size: 20px;&quot;&gt;Saga Rentals Microservice&lt;/font&gt;" style="text;html=1;align=center;verticalAlign=middle;whiteSpace=wrap;rounded=0;" vertex="1" parent="1">
          <mxGeometry x="23" y="70" width="385" height="30" as="geometry" />
        </mxCell>
        <mxCell id="C_d3zwqtKGMjWqqKydHQ-3" value="Client" style="rounded=0;whiteSpace=wrap;html=1;fillColor=#f5f5f5;fontColor=#333333;strokeColor=#666666;" vertex="1" parent="1">
          <mxGeometry x="-260" y="235" width="120" height="60" as="geometry" />
        </mxCell>
        <mxCell id="C_d3zwqtKGMjWqqKydHQ-4" value="/rental&lt;div&gt;postCreateRental()&lt;/div&gt;" style="rounded=0;whiteSpace=wrap;html=1;fillColor=#d5e8d4;strokeColor=#82b366;" vertex="1" parent="1">
          <mxGeometry x="-30" y="170" width="130" height="190" as="geometry" />
        </mxCell>
        <mxCell id="C_d3zwqtKGMjWqqKydHQ-5" value="" style="rounded=0;whiteSpace=wrap;html=1;fillColor=#dae8fc;strokeColor=#6c8ebf;" vertex="1" parent="1">
          <mxGeometry x="160" y="170" width="130" height="190" as="geometry" />
        </mxCell>
        <mxCell id="C_d3zwqtKGMjWqqKydHQ-6" value="" style="rounded=0;whiteSpace=wrap;html=1;fillColor=#f8cecc;strokeColor=#b85450;" vertex="1" parent="1">
          <mxGeometry x="310" y="170" width="260" height="190" as="geometry" />
        </mxCell>
        <mxCell id="C_d3zwqtKGMjWqqKydHQ-7" value="&lt;font style=&quot;font-size: 16px;&quot;&gt;Rental Controller&lt;/font&gt;" style="text;html=1;align=center;verticalAlign=middle;whiteSpace=wrap;rounded=0;" vertex="1" parent="1">
          <mxGeometry x="-40" y="130" width="150" height="40" as="geometry" />
        </mxCell>
        <mxCell id="C_d3zwqtKGMjWqqKydHQ-8" value="&lt;font style=&quot;font-size: 16px;&quot;&gt;Rental Service&lt;/font&gt;" style="text;html=1;align=center;verticalAlign=middle;whiteSpace=wrap;rounded=0;" vertex="1" parent="1">
          <mxGeometry x="150" y="130" width="150" height="40" as="geometry" />
        </mxCell>
        <mxCell id="C_d3zwqtKGMjWqqKydHQ-9" value="Rental Saga" style="text;html=1;align=center;verticalAlign=middle;whiteSpace=wrap;rounded=0;" vertex="1" parent="1">
          <mxGeometry x="340" y="130" width="150" height="40" as="geometry" />
        </mxCell>
        <mxCell id="C_d3zwqtKGMjWqqKydHQ-10" value="save()" style="rounded=0;whiteSpace=wrap;html=1;" vertex="1" parent="1">
          <mxGeometry x="172.5" y="200" width="105" height="50" as="geometry" />
        </mxCell>
        <mxCell id="C_d3zwqtKGMjWqqKydHQ-11" value="send()" style="rounded=0;whiteSpace=wrap;html=1;" vertex="1" parent="1">
          <mxGeometry x="172.5" y="280" width="105" height="50" as="geometry" />
        </mxCell>
        <mxCell id="C_d3zwqtKGMjWqqKydHQ-13" value="" style="shape=flexArrow;endArrow=classic;html=1;rounded=0;exitX=1;exitY=0.5;exitDx=0;exitDy=0;entryX=0;entryY=0.5;entryDx=0;entryDy=0;fillColor=#f5f5f5;strokeColor=#666666;" edge="1" parent="1" source="C_d3zwqtKGMjWqqKydHQ-4" target="C_d3zwqtKGMjWqqKydHQ-5">
          <mxGeometry width="50" height="50" relative="1" as="geometry">
            <mxPoint x="50" y="470" as="sourcePoint" />
            <mxPoint x="120" y="470" as="targetPoint" />
          </mxGeometry>
        </mxCell>
        <mxCell id="C_d3zwqtKGMjWqqKydHQ-16" value="" style="shape=flexArrow;endArrow=classic;html=1;rounded=0;exitX=0.875;exitY=0.04;exitDx=0;exitDy=0;entryX=0.5;entryY=1;entryDx=0;entryDy=0;exitPerimeter=0;fillColor=#fff2cc;strokeColor=#d6b656;" edge="1" parent="1" source="C_d3zwqtKGMjWqqKydHQ-20" target="C_d3zwqtKGMjWqqKydHQ-17">
          <mxGeometry width="50" height="50" relative="1" as="geometry">
            <mxPoint x="290" y="550" as="sourcePoint" />
            <mxPoint x="290" y="670" as="targetPoint" />
          </mxGeometry>
        </mxCell>
        <mxCell id="C_d3zwqtKGMjWqqKydHQ-17" value="&lt;div&gt;Rental&lt;/div&gt;&lt;div&gt;Created&lt;/div&gt;&lt;div&gt;Event&lt;/div&gt;" style="rounded=0;whiteSpace=wrap;html=1;" vertex="1" parent="1">
          <mxGeometry x="320" y="300" width="105" height="50" as="geometry" />
        </mxCell>
        <mxCell id="C_d3zwqtKGMjWqqKydHQ-18" value="&lt;div&gt;Reserved&lt;/div&gt;&lt;div&gt;Item&lt;/div&gt;&lt;div&gt;Command&lt;/div&gt;" style="rounded=0;whiteSpace=wrap;html=1;" vertex="1" parent="1">
          <mxGeometry x="450" y="300" width="105" height="50" as="geometry" />
        </mxCell>
        <mxCell id="C_d3zwqtKGMjWqqKydHQ-19" value="&lt;div&gt;Item&lt;/div&gt;&lt;div&gt;Reserved&lt;/div&gt;&lt;div&gt;Event&lt;/div&gt;" style="rounded=0;whiteSpace=wrap;html=1;" vertex="1" parent="1">
          <mxGeometry x="450" y="180" width="105" height="50" as="geometry" />
        </mxCell>
        <mxCell id="C_d3zwqtKGMjWqqKydHQ-20" value="&lt;div&gt;rental-created-events-topic&lt;/div&gt;" style="rounded=0;whiteSpace=wrap;html=1;fillColor=#fff2cc;strokeColor=#d6b656;" vertex="1" parent="1">
          <mxGeometry x="200" y="450" width="200" height="50" as="geometry" />
        </mxCell>
        <mxCell id="C_d3zwqtKGMjWqqKydHQ-12" value="" style="shape=flexArrow;endArrow=classic;html=1;rounded=0;exitX=1;exitY=0.5;exitDx=0;exitDy=0;entryX=0;entryY=0.5;entryDx=0;entryDy=0;fillColor=#f5f5f5;strokeColor=#666666;" edge="1" parent="1" source="C_d3zwqtKGMjWqqKydHQ-3" target="C_d3zwqtKGMjWqqKydHQ-4">
          <mxGeometry width="50" height="50" relative="1" as="geometry">
            <mxPoint x="160" y="460" as="sourcePoint" />
            <mxPoint x="210" y="410" as="targetPoint" />
          </mxGeometry>
        </mxCell>
        <mxCell id="C_d3zwqtKGMjWqqKydHQ-14" value="" style="shape=flexArrow;endArrow=classic;html=1;rounded=0;exitX=0.5;exitY=1;exitDx=0;exitDy=0;entryX=0.125;entryY=0.02;entryDx=0;entryDy=0;entryPerimeter=0;fillColor=#fff2cc;strokeColor=#d6b656;" edge="1" parent="1" source="C_d3zwqtKGMjWqqKydHQ-11" target="C_d3zwqtKGMjWqqKydHQ-20">
          <mxGeometry width="50" height="50" relative="1" as="geometry">
            <mxPoint x="-110" y="260" as="sourcePoint" />
            <mxPoint x="225" y="450" as="targetPoint" />
          </mxGeometry>
        </mxCell>
        <mxCell id="C_d3zwqtKGMjWqqKydHQ-21" value="rental-commands-topic" style="rounded=0;whiteSpace=wrap;html=1;fillColor=#fff2cc;strokeColor=#d6b656;" vertex="1" parent="1">
          <mxGeometry x="425" y="450" width="220" height="50" as="geometry" />
        </mxCell>
        <mxCell id="C_d3zwqtKGMjWqqKydHQ-22" value="items-reserved-events-topic" style="rounded=0;whiteSpace=wrap;html=1;fillColor=#fff2cc;strokeColor=#d6b656;" vertex="1" parent="1">
          <mxGeometry x="615" y="180" width="220" height="50" as="geometry" />
        </mxCell>
        <mxCell id="C_d3zwqtKGMjWqqKydHQ-15" value="" style="shape=flexArrow;endArrow=classic;html=1;rounded=0;exitX=0.5;exitY=1;exitDx=0;exitDy=0;entryX=0.35;entryY=0;entryDx=0;entryDy=0;entryPerimeter=0;fillColor=#fff2cc;strokeColor=#d6b656;" edge="1" parent="1" source="C_d3zwqtKGMjWqqKydHQ-18" target="C_d3zwqtKGMjWqqKydHQ-21">
          <mxGeometry width="50" height="50" relative="1" as="geometry">
            <mxPoint x="224.5" y="560" as="sourcePoint" />
            <mxPoint x="500" y="440" as="targetPoint" />
          </mxGeometry>
        </mxCell>
        <mxCell id="C_d3zwqtKGMjWqqKydHQ-23" value="" style="shape=flexArrow;endArrow=classic;html=1;rounded=0;exitX=1;exitY=0.5;exitDx=0;exitDy=0;fillColor=#fff2cc;strokeColor=#d6b656;" edge="1" parent="1" source="C_d3zwqtKGMjWqqKydHQ-21">
          <mxGeometry width="50" height="50" relative="1" as="geometry">
            <mxPoint x="501" y="410" as="sourcePoint" />
            <mxPoint x="700" y="475" as="targetPoint" />
          </mxGeometry>
        </mxCell>
        <mxCell id="C_d3zwqtKGMjWqqKydHQ-24" value="" style="rounded=0;whiteSpace=wrap;html=1;dashed=1;fillColor=#f5f5f5;fontColor=#333333;strokeColor=#666666;" vertex="1" parent="1">
          <mxGeometry x="700" y="410" width="125" height="90" as="geometry" />
        </mxCell>
        <mxCell id="C_d3zwqtKGMjWqqKydHQ-25" value="&lt;font style=&quot;font-size: 14px;&quot;&gt;Items Microservice&lt;/font&gt;" style="text;html=1;align=center;verticalAlign=middle;whiteSpace=wrap;rounded=0;" vertex="1" parent="1">
          <mxGeometry x="695" y="380" width="140" height="30" as="geometry" />
        </mxCell>
        <mxCell id="C_d3zwqtKGMjWqqKydHQ-28" value="" style="shape=flexArrow;endArrow=classic;html=1;rounded=0;fillColor=#fff2cc;strokeColor=#d6b656;exitX=0.464;exitY=0;exitDx=0;exitDy=0;exitPerimeter=0;" edge="1" parent="1" source="C_d3zwqtKGMjWqqKydHQ-25">
          <mxGeometry width="50" height="50" relative="1" as="geometry">
            <mxPoint x="760" y="360" as="sourcePoint" />
            <mxPoint x="760" y="240" as="targetPoint" />
          </mxGeometry>
        </mxCell>
        <mxCell id="C_d3zwqtKGMjWqqKydHQ-30" value="reserveItem()" style="rounded=0;whiteSpace=wrap;html=1;" vertex="1" parent="1">
          <mxGeometry x="725" y="460" width="80" height="30" as="geometry" />
        </mxCell>
        <mxCell id="C_d3zwqtKGMjWqqKydHQ-31" value="send()" style="rounded=0;whiteSpace=wrap;html=1;" vertex="1" parent="1">
          <mxGeometry x="725" y="420" width="80" height="30" as="geometry" />
        </mxCell>
        <mxCell id="C_d3zwqtKGMjWqqKydHQ-29" value="" style="shape=flexArrow;endArrow=classic;html=1;rounded=0;entryX=1;entryY=0.5;entryDx=0;entryDy=0;exitX=0;exitY=0.5;exitDx=0;exitDy=0;fillColor=#fff2cc;strokeColor=#d6b656;" edge="1" parent="1" source="C_d3zwqtKGMjWqqKydHQ-22" target="C_d3zwqtKGMjWqqKydHQ-19">
          <mxGeometry width="50" height="50" relative="1" as="geometry">
            <mxPoint x="760" y="450" as="sourcePoint" />
            <mxPoint x="760" y="320" as="targetPoint" />
          </mxGeometry>
        </mxCell>
      </root>
    </mxGraphModel>
  </diagram>
</mxfile>
